<?xml version="1.0" encoding="UTF-8" standalone="no"?>
<svg
   height="24px"
   viewBox="0 -960 960 960"
   width="24px"
   fill="#e8eaed"
   version="1.1"
   id="svg1"
   sodipodi:docname="icon.svg"
   xml:space="preserve"
   inkscape:version="1.3.2 (091e20e, 2023-11-25)"
   inkscape:export-filename="../Documents/Repositories/Gatecam/mobile/jpeg_stream_viewer/assets/icon.png"
   inkscape:export-xdpi="4096"
   inkscape:export-ydpi="4096"
   xmlns:inkscape="http://www.inkscape.org/namespaces/inkscape"
   xmlns:sodipodi="http://sodipodi.sourceforge.net/DTD/sodipodi-0.dtd"
   xmlns="http://www.w3.org/2000/svg"
   xmlns:svg="http://www.w3.org/2000/svg"><defs
     id="defs1"><inkscape:path-effect
       effect="dashed_stroke"
       id="path-effect6"
       is_visible="true"
       lpeversion="1"
       numberdashes="3"
       holefactor="0"
       splitsegments="true"
       halfextreme="true"
       unifysegment="true"
       message="Add &lt;b&gt;&quot;Fill Between Many LPE&quot;&lt;/b&gt; to add fill." /><inkscape:path-effect
       effect="fillet_chamfer"
       id="path-effect5"
       is_visible="true"
       lpeversion="1"
       nodesatellites_param="F,0,0,1,0,50,0,16 @ F,0,0,1,0,50,0,16 @ F,0,0,1,0,50,0,16 @ F,0,0,1,0,50,0,16 @ F,0,0,1,0,50,0,16 @ F,0,0,1,0,50,0,16 @ F,0,0,1,0,50,0,16 @ F,0,0,1,0,50,0,16 @ F,0,0,1,0,50,0,16 @ F,0,0,1,0,50,0,16 @ F,0,0,1,0,50,0,16 @ F,0,0,1,0,50,0,16 @ F,0,0,1,0,50,0,16 @ F,0,0,1,0,50,0,16 @ F,0,0,1,0,50,0,16 @ F,0,0,1,0,50,0,16 @ F,0,0,1,0,50,0,16 @ F,0,0,1,0,50,0,16 @ F,0,0,1,0,50,0,16 @ F,0,0,1,0,50,0,16 @ F,0,0,1,0,50,0,16 @ F,0,0,1,0,50,0,16 @ F,0,0,1,0,50,0,16 @ F,0,0,1,0,50,0,16 @ F,0,0,1,0,50,0,16 @ F,0,0,1,0,50,0,16 @ F,0,0,1,0,50,0,16 @ F,0,0,1,0,50,0,16 @ F,0,0,1,0,50,0,16 @ F,0,0,1,0,50,0,16 @ F,0,0,1,0,50,0,16 @ F,0,0,1,0,50,0,16 @ F,0,0,1,0,50,0,16 @ F,0,0,1,0,50,0,16 @ F,0,0,1,0,50,0,16 @ F,0,0,1,0,50,0,16 @ F,0,0,1,0,50,0,16 @ F,0,0,1,0,50,0,16 @ F,0,0,1,0,50,0,16 @ F,0,0,1,0,50,0,16 @ F,0,0,1,0,50,0,16 @ F,0,0,1,0,50,0,16 | F,0,0,1,0,50,0,16 @ F,0,0,1,0,50,0,16 @ F,0,0,1,0,50,0,16 @ F,0,0,1,0,50,0,16 @ F,0,0,1,0,50,0,16 @ F,0,0,1,0,50,0,16 @ F,0,0,1,0,50,0,16 @ F,0,0,1,0,50,0,16 @ F,0,0,1,0,50,0,16 @ F,0,0,1,0,50,0,16 @ F,0,0,1,0,50,0,16 @ F,0,0,1,0,50,0,16 @ F,0,0,1,0,50,0,16 @ F,0,0,1,0,50,0,16 @ F,0,0,1,0,50,0,16 @ F,0,0,1,0,50,0,16 @ F,0,0,1,0,50,0,16 @ F,0,0,1,0,50,0,16 @ F,0,0,1,0,50,0,16 @ F,0,0,1,0,50,0,16 @ F,0,0,1,0,50,0,16 @ F,0,0,1,0,50,0,16 @ F,0,0,1,0,50,0,16 @ F,0,0,1,0,50,0,16 @ F,0,0,1,0,50,0,16 @ F,0,0,1,0,50,0,16 @ F,0,0,1,0,50,0,16 @ F,0,0,1,0,50,0,16 @ F,0,0,1,0,50,0,16 @ F,0,0,1,0,50,0,16 @ F,0,0,1,0,50,0,16 @ F,0,0,1,0,50,0,16 @ F,0,0,1,0,50,0,16 @ F,0,0,1,0,50,0,16 | F,0,0,1,0,50,0,16 @ F,0,0,1,0,50,0,16 @ F,0,0,1,0,50,0,16 @ F,0,0,1,0,50,0,16 @ F,0,0,1,0,50,0,16 @ F,0,0,1,0,50,0,16 @ F,0,0,1,0,50,0,16 @ F,0,0,1,0,50,0,16 @ F,0,0,1,0,50,0,16 @ F,0,0,1,0,50,0,16 @ F,0,0,1,0,50,0,16 @ F,0,0,1,0,50,0,16 @ F,0,0,1,0,50,0,16 @ F,0,0,1,0,50,0,16 @ F,0,0,1,0,50,0,16 @ F,0,0,1,0,50,0,16"
       radius="50"
       unit="px"
       method="auto"
       mode="F"
       chamfer_steps="16"
       flexible="false"
       use_knot_distance="true"
       apply_no_radius="true"
       apply_with_radius="true"
       only_selected="false"
       hide_knots="false" /><inkscape:path-effect
       effect="offset"
       id="path-effect4"
       is_visible="true"
       lpeversion="1.2"
       linejoin_type="miter"
       unit="mm"
       offset="0.2"
       miter_limit="4"
       attempt_force_join="false"
       update_on_knot_move="true" /></defs><sodipodi:namedview
     id="namedview1"
     pagecolor="#505050"
     bordercolor="#ffffff"
     borderopacity="1"
     inkscape:showpageshadow="0"
     inkscape:pageopacity="0"
     inkscape:pagecheckerboard="1"
     inkscape:deskcolor="#505050"
     inkscape:zoom="33.541666"
     inkscape:cx="9.436025"
     inkscape:cy="11.910559"
     inkscape:window-width="1920"
     inkscape:window-height="1006"
     inkscape:window-x="1080"
     inkscape:window-y="290"
     inkscape:window-maximized="1"
     inkscape:current-layer="svg1"
     showguides="false" /><path
     id="path2"
     style="fill:#000000;stroke:none"
     d="m 1221.5509,-1247.2814 -29.428,29.428 a 61.169413,61.169413 95.737367 0 0 -7.7401,77.0375 l 34.2227,51.6553 a 250.05346,250.05346 67.782311 0 1 37.0786,90.77835 l 4.9892,25.88364 a 257.48907,257.48907 90.078994 0 1 -0.1354,98.16625 l -5.0016,25.56902 a 250.46931,250.46931 112.35739 0 1 -37.3023,90.69349 l -16.7141,25.11236 a 249.30942,249.30942 134.98712 0 1 -69.3145,69.34571 l -25.1432,16.75091 a 250.10457,250.10457 157.6329 0 1 -90.6821,37.31556 l -25.62937,5.01054 a 257.57344,257.57344 179.92382 0 1 -98.16742,0.13053 l -25.88146,-4.98839 a 249.75102,249.75102 22.230327 0 1 -90.76597,-37.09697 l -33.48504,-22.20635 a 522.01906,522.01906 28.080033 0 0 -87.82714,-46.856 l -120.69271,-50.26133 a 119.66366,119.66366 179.93181 0 0 -92.26922,0.10982 l -128.18292,53.73895 a 122.18713,122.18713 135 0 0 -65.44336,65.44336 l -53.73895,128.18292 a 119.66366,119.66366 90.068194 0 0 -0.10982,92.26922 l 50.26133,120.69271 a 522.01906,522.01906 61.919967 0 0 46.856,87.82714 l 22.20635,33.48504 a 249.75102,249.75102 67.769673 0 1 37.09697,90.765971 l 4.98839,25.881454 a 257.57344,257.57344 90.076184 0 1 -0.13053,98.167426 l -5.01054,25.629397 a 250.10457,250.10457 112.3671 0 1 -37.31556,90.682092 l -16.75091,25.14314 a 249.30942,249.30942 135.01288 0 1 -69.34571,69.31454 l -25.11236,16.71411 a 250.46931,250.46931 157.64261 0 1 -90.69349,37.30227 l -25.569019,5.00166 a 257.48907,257.48907 179.92101 0 1 -98.166251,0.13534 l -25.883639,-4.98914 a 250.05346,250.05346 22.217689 0 1 -90.778381,-37.07867 l -51.6553,-34.22266 a 61.169413,61.169413 174.26263 0 0 -77.03746,7.74011 l -29.42799,29.42799 a 40.959411,40.959411 84.32393 0 0 6.2676,63.0597 l 98.56467,65.60496 a 248.30348,248.30348 22.262665 0 0 90.724588,37.13982 l 79.01545,15.18375 a 257.29078,257.29078 179.8801 0 0 98.16338,-0.20542 l 78.925372,-15.50924 a 251.75186,251.75186 157.64949 0 0 90.71564,-37.29865 l 72.08866,-47.86612 a 247.84188,247.84188 135.01041 0 0 69.32681,-69.30161 l 47.91983,-72.11268 A 251.4537,251.4537 112.35835 0 0 481.74,109.53897 l 15.51805,-79.007626 a 257.35523,257.35523 90.117446 0 0 0.20122,-98.164282 l -15.18416,-79.019282 a 248.06783,248.06783 67.727036 0 0 -37.15475,-90.71455 l -43.5708,-65.40904 a 512.97732,512.97732 61.898354 0 1 -46.88155,-87.79528 l -14.4122,-34.73478 a 120.54054,120.54054 89.993986 0 1 -0.01,-92.36885 l 10.76948,-25.97088 a 120.84532,120.84532 135 0 1 65.3388,-65.3388 l 25.97088,-10.76948 a 120.54054,120.54054 0.00601381 0 1 92.36885,0.01 l 34.73478,14.4122 a 512.97732,512.97732 28.101646 0 1 87.79528,46.88155 l 65.40904,43.5708 a 248.06783,248.06783 22.272964 0 0 90.71455,37.15475 l 79.01928,15.18416 a 257.35523,257.35523 179.88255 0 0 98.16428,-0.20122 L 1069.539,-478.26 a 251.4537,251.4537 157.64165 0 0 90.7064,-37.30938 l 72.1127,-47.91983 a 247.84188,247.84188 134.98959 0 0 69.3016,-69.32681 l 47.8661,-72.08866 a 251.75186,251.75186 112.35051 0 0 37.2987,-90.71564 l 15.5092,-78.92537 a 257.29078,257.29078 90.119899 0 0 0.2054,-98.16338 l -15.1837,-79.01543 a 248.30348,248.30348 67.737335 0 0 -37.1398,-90.7246 l -65.605,-98.5647 a 40.959411,40.959411 5.6760696 0 0 -63.0597,-6.2676 z m -107.2917,107.2883 -32.1453,32.1014 a 74.688813,74.688813 101.23907 0 0 -16.1962,81.5047 l 23.3286,56.15093 a 120.34667,120.34667 90.000211 0 1 -3e-4,92.347 l -10.7693,25.92072 a 120.99552,120.99552 135.01375 0 1 -65.3664,65.33497 l -25.91205,10.75113 a 120.50857,120.50857 1.1510357e-5 0 1 -92.36525,-2e-5 l -34.73827,-14.4132 a 513.92569,513.92569 28.090814 0 1 -87.80566,-46.86576 l -65.38088,-43.51738 a 248.60355,248.60355 22.275839 0 0 -90.7203,-37.16243 l -79.02812,-15.22417 a 256.7216,256.7216 179.88287 0 0 -98.15546,0.20065 l -79.01643,15.55724 a 252.00329,252.00329 157.6394 0 0 -90.7125,37.31604 l -72.08982,47.86537 a 247.59126,247.59126 135 0 0 -69.31147,69.31147 l -47.865371,72.08982 a 252.00329,252.00329 112.3606 0 0 -37.316035,90.7125 l -15.557243,79.01643 a 256.7216,256.7216 90.117127 0 0 -0.200655,98.15546 l 15.224178,79.02812 a 248.60355,248.60355 67.724161 0 0 37.162427,90.7203 l 43.517379,65.38088 a 513.92569,513.92569 61.909186 0 1 46.86576,87.805661 l 14.4132,34.738272 a 120.50857,120.50857 89.999988 0 1 2e-5,92.365251 l -10.75113,25.912085 a 120.99552,120.99552 134.98625 0 1 -65.33497,65.366341 l -25.920723,10.7693 a 120.34667,120.34667 179.99979 0 1 -92.346995,3.4e-4 l -56.150911,-23.32858 a 74.688813,74.688813 168.76093 0 0 -81.504721,16.19614 l -32.10136,32.14529 a 33.490201,33.490201 78.775159 0 0 10.83287,54.5858 l 159.6777972,66.4331 A 119.75266,119.75266 179.92763 0 0 82.797006,275.16151 L 210.89049,221.48888 a 122.15453,122.15453 135.00561 0 0 65.44726,-65.43444 L 330.07826,27.869393 a 119.66282,119.66282 90.068301 0 0 0.10999,-92.26912 L 279.93089,-185.0827 a 524.11085,524.11085 61.941635 0 0 -46.82448,-87.84803 l -22.19133,-33.51744 a 250.32193,250.32193 67.78789 0 1 -37.07136,-90.78574 l -4.98041,-25.8232 a 257.48782,257.48782 90.07281 0 1 0.12475,-98.16625 l 5.01216,-25.63727 a 250.39682,250.39682 112.35444 0 1 37.29719,-90.69441 l 16.71182,-25.10867 a 249.02442,249.02442 135 0 1 69.32706,-69.32706 l 25.10867,-16.71182 a 250.39682,250.39682 157.64556 0 1 90.69441,-37.29719 l 25.63727,-5.01216 a 257.48782,257.48782 179.92719 0 1 98.16625,-0.12475 l 25.8232,4.98041 a 250.32193,250.32193 22.21211 0 1 90.78574,37.07136 l 33.51744,22.19133 a 524.11085,524.11085 28.058365 0 0 87.84803,46.82448 l 120.68297,50.25736 a 119.66282,119.66282 179.9317 0 0 92.26912,-0.10999 l 128.18501,-53.74051 a 122.15453,122.15453 134.99439 0 0 65.4345,-65.44726 l 53.6726,-128.09348 a 119.75266,119.75266 90.072373 0 0 0.1166,-92.2794 l -66.4331,-159.67781 a 33.490201,33.490201 11.224841 0 0 -54.5858,-10.8329 z m -671.8265,554.63344 -1.62517,0.68417 a 122.70635,122.70635 135 0 0 -65.48302,65.48302 l -0.68417,1.62517 a 118.76775,118.76775 89.999649 0 0 5.6e-4,92.16561 l 0.0463,0.11002 a 141.6103,141.6103 47.721864 0 0 63.43501,69.76763 130.85446,130.85446 6.7775973 0 0 73.61461,8.74882 61.137958,61.137958 43.291719 0 1 37.35678,35.19306 l 3.90846,3.90846 a 120.71068,120.71068 67.5 0 1 35.35534,85.35534 v 110.05469 a 50,50 45 0 0 50,49.999998 h 39.69141 a 50,50 135 0 0 50,-49.999998 v -69.6875 a 50,50 135 0 1 50,-50 h 69.6875 a 50,50 135 0 0 50,-50 v -39.69141 a 50,50 45 0 0 -50,-50 H 737.68164 a 120.71068,120.71068 22.5 0 1 -85.35534,-35.35534 l -3.90846,-3.90846 a 108.12188,108.12188 69.817761 0 1 -31.3145,-85.19179 91.252892,91.252892 62.934567 0 0 -23.52266,-46.03578 109.64408,109.64408 36.25749 0 0 -58.87235,-43.17883 l -0.11002,-0.0463 a 118.76775,118.76775 3.5149556e-4 0 0 -92.16561,-5.6e-4 z"
     inkscape:path-effect="#path-effect4;#path-effect5"
     inkscape:original-d="m 1252.1875,-1235.1562 -56.5625,56.5624 79.1406,119.4532 26.1719,135.78122 -26.4844,135.39063 -78.8281,118.4375 -118.4375,78.90625 -135.46875,26.48438 -135.78125,-26.17188 -119.45312,-79.21875 -198.67188,-82.73437 -197.34375,82.73437 -82.73437,197.34375 82.73437,198.67188 79.21875,119.45312 26.17188,135.78125 L 369.375,117.1875 290.46875,235.625 172.03125,314.45312 36.640625,340.9375 -99.140625,314.76562 -218.59375,235.625 l -56.5625,56.5625 146.01563,97.1875 165.468745,31.79688 165.390625,-32.5 145.3125,-96.48438 96.5625,-145.3125 32.5,-165.46875 -31.79687,-165.46875 -97.26563,-146.01562 -58.67187,-141.40626 58.67187,-141.48437 141.48437,-58.67187 141.40626,58.67187 146.01562,97.26563 165.46875,31.79687 165.46875,-32.5 145.3125,-96.5625 96.4844,-145.3125 32.5,-165.39063 -31.7969,-165.46872 z m -113.125,113.125 -56.6406,56.5624 58.75,141.4063 -58.75,141.40625 -141.40628,58.67187 -141.40624,-58.67187 -146.01563,-97.1875 -165.46875,-31.875 -165.46875,32.57813 -145.3125,96.48437 -96.484375,145.3125 -32.578125,165.46875 31.875,165.46875 97.1875,146.01563 58.67187,141.406245 -58.67187,141.406255 -141.40625,58.75 -141.40625,-58.75 -56.5625,56.64062 198.671875,82.65625 197.265625,-82.65625 82.73437,-197.34375 -82.73437,-198.67187 -79.14063,-119.53126 -26.17187,-135.70312 26.48437,-135.46875 78.82813,-118.4375 118.4375,-78.82813 135.46875,-26.48437 135.70312,26.17187 119.53126,79.14063 198.67187,82.73437 197.34375,-82.73437 82.6563,-197.26563 z m -650.54688,550.07808 -70.70312,29.76562 -29.76562,70.70312 29.76562,70.70313 50.54688,27.1875 56.875,-4.60937 93.35937,93.35937 V -92.5 H 697.8125 V -262.1875 H 867.5 v -79.21875 H 675.15625 l -93.35937,-93.35937 4.60937,-56.875 -27.1875,-50.54688 z"
     sodipodi:nodetypes="ccccccccccccccccccccccccccccccccccccccccccccccccccccccccccccccccccccccccccccccccccccccccccccccc" /><path
     d="m 867.49451,-262.2111 v -79.19596 H 675.16146 l -93.33809,-93.3381 4.59619,-56.92209 -27.22361,-50.55814 -70.71068,-29.69848 -70.71068,29.69848 -29.69848,70.71068 29.69848,70.71068 50.55814,27.22361 56.92209,-4.59619 93.3381,93.33809 v 192.33305 h 79.19596 V -262.2111 Z"
     id="path10"
     inkscape:transform-center-x="-180.66875"
     inkscape:transform-center-y="180.66876"
     sodipodi:nodetypes="ccccccccccccccccc"
     style="stroke:none;fill:#ffffff" /><path
     id="path9"
     d="m -275.15618,292.18751 56.5624,-56.5625 119.453172,79.1406 135.781218,26.1719 135.39063,-26.4844 118.4375,-78.8281 78.90625,-118.4375 26.48438,-135.46877 -26.17188,-135.78123 -79.21875,-119.45312 -82.73437,-198.67188 82.73437,-197.34375 197.34375,-82.73437 198.67188,82.73437 119.45312,79.21875 135.78124,26.17188 135.46877,-26.48438 118.4375,-78.90625 78.8281,-118.4375 26.4844,-135.39063 -26.1719,-135.78123 -79.1406,-119.4532 56.5625,-56.5625 97.1875,146.0157 31.7968,165.46873 -32.5,165.39063 -96.4843,145.3125 -145.3125,96.5625 -165.46877,32.5 -165.46874,-31.79687 -146.01562,-97.26563 -141.40626,-58.67187 -141.48437,58.67187 -58.67187,141.48437 58.67187,141.40626 97.26563,146.01562 31.79687,165.46873 -32.5,165.46877 -96.5625,145.3125 -145.3125,96.4844 -165.39063,32.5 -165.46869,-31.7969 z"
     sodipodi:nodetypes="ccccccccccccccccccccccccccccccccccccccccccc"
     style="stroke:none;fill:#ffffff" /><path
     id="path1"
     inkscape:transform-center-x="23.156705"
     inkscape:transform-center-y="-23.156734"
     d="m -162.03118,179.06251 56.56237,-56.6406 141.4063,58.75 141.40625,-58.75 58.67187,-141.40627 -58.67187,-141.40625 -97.1875,-146.01563 -31.875,-165.46875 32.57813,-165.46875 96.48437,-145.3125 145.3125,-96.48438 165.46875,-32.57812 165.46875,31.875 146.01563,97.1875 141.40626,58.67187 141.40617,-58.67187 58.75,-141.40625 -58.75,-141.40621 56.6407,-56.5626 82.6562,198.67193 -82.6562,197.26563 -197.34377,82.73437 -198.67186,-82.73437 -119.53126,-79.14063 -135.70312,-26.17187 -135.46875,26.48437 -118.4375,78.82813 -78.82813,118.4375 -26.48437,135.46875 26.17187,135.70312 79.14063,119.53126 82.73437,198.67185 -82.73437,197.34377 -197.26563,82.6563 z"
     sodipodi:nodetypes="ccccccccccccccccccccccccccccccccccc"
     style="stroke:none;fill:#ffffff;stroke-width:40;stroke-dasharray:none;stroke-linejoin:bevel" /></svg>
