<?xml version="1.0" encoding="UTF-8" standalone="no"?>
<svg
   height="24px"
   viewBox="0 -960 960 960"
   width="24px"
   fill="#e8eaed"
   version="1.1"
   id="svg1"
   sodipodi:docname="stream_24dp_E8EAED_FILL0_wght400_GRAD0_opsz24.svg"
   xml:space="preserve"
   inkscape:version="1.3.2 (091e20e, 2023-11-25)"
   inkscape:export-filename="../Documents/Repositories/Gate-Cam/mobile/jpeg_stream_viewer/assets/icon.png"
   inkscape:export-xdpi="4096"
   inkscape:export-ydpi="4096"
   xmlns:inkscape="http://www.inkscape.org/namespaces/inkscape"
   xmlns:sodipodi="http://sodipodi.sourceforge.net/DTD/sodipodi-0.dtd"
   xmlns="http://www.w3.org/2000/svg"
   xmlns:svg="http://www.w3.org/2000/svg"><defs
     id="defs1" /><sodipodi:namedview
     id="namedview1"
     pagecolor="#505050"
     bordercolor="#ffffff"
     borderopacity="1"
     inkscape:showpageshadow="0"
     inkscape:pageopacity="0"
     inkscape:pagecheckerboard="1"
     inkscape:deskcolor="#505050"
     inkscape:zoom="16.770833"
     inkscape:cx="5.6347826"
     inkscape:cy="19.647205"
     inkscape:window-width="1920"
     inkscape:window-height="1006"
     inkscape:window-x="1080"
     inkscape:window-y="290"
     inkscape:window-maximized="1"
     inkscape:current-layer="svg1"
     showguides="false" /><path
     d="m 867.49451,-262.2111 v -79.19596 H 675.16146 l -93.33809,-93.3381 4.59619,-56.92209 -27.22361,-50.55814 -70.71068,-29.69848 -70.71068,29.69848 -29.69848,70.71068 29.69848,70.71068 50.55814,27.22361 56.92209,-4.59619 93.3381,93.33809 v 192.33305 h 79.19596 V -262.2111 Z"
     id="path10"
     inkscape:transform-center-x="-180.66875"
     inkscape:transform-center-y="180.66876"
     sodipodi:nodetypes="ccccccccccccccccc"
     style="stroke:none;fill:#ffffff" /><path
     id="path9"
     d="m -275.15618,292.18751 56.5624,-56.5625 119.453172,79.1406 135.781218,26.1719 135.39063,-26.4844 118.4375,-78.8281 78.90625,-118.4375 26.48438,-135.46877 -26.17188,-135.78123 -79.21875,-119.45312 -82.73437,-198.67188 82.73437,-197.34375 197.34375,-82.73437 198.67188,82.73437 119.45312,79.21875 135.78124,26.17188 135.46877,-26.48438 118.4375,-78.90625 78.8281,-118.4375 26.4844,-135.39063 -26.1719,-135.78123 -79.1406,-119.4532 56.5625,-56.5625 97.1875,146.0157 31.7968,165.46873 -32.5,165.39063 -96.4843,145.3125 -145.3125,96.5625 -165.46877,32.5 -165.46874,-31.79687 -146.01562,-97.26563 -141.40626,-58.67187 -141.48437,58.67187 -58.67187,141.48437 58.67187,141.40626 97.26563,146.01562 31.79687,165.46873 -32.5,165.46877 -96.5625,145.3125 -145.3125,96.4844 -165.39063,32.5 -165.46869,-31.7969 z"
     sodipodi:nodetypes="ccccccccccccccccccccccccccccccccccccccccccc"
     style="stroke:none;fill:#ffffff" /><path
     id="path1"
     inkscape:transform-center-x="23.156705"
     inkscape:transform-center-y="-23.156734"
     d="m -162.03118,179.06251 56.56237,-56.6406 141.4063,58.75 141.40625,-58.75 58.67187,-141.40627 -58.67187,-141.40625 -97.1875,-146.01563 -31.875,-165.46875 32.57813,-165.46875 96.48437,-145.3125 145.3125,-96.48438 165.46875,-32.57812 165.46875,31.875 146.01563,97.1875 141.40626,58.67187 141.40617,-58.67187 58.75,-141.40625 -58.75,-141.40621 56.6407,-56.5626 82.6562,198.67193 -82.6562,197.26563 -197.34377,82.73437 -198.67186,-82.73437 -119.53126,-79.14063 -135.70312,-26.17187 -135.46875,26.48437 -118.4375,78.82813 -78.82813,118.4375 -26.48437,135.46875 26.17187,135.70312 79.14063,119.53126 82.73437,198.67185 -82.73437,197.34377 -197.26563,82.6563 z"
     sodipodi:nodetypes="ccccccccccccccccccccccccccccccccccc"
     style="stroke:none;fill:#ffffff" /></svg>
